<svg version="1.1" xmlns="http://www.w3.org/2000/svg" xmlns:xlink="http://www.w3.org/1999/xlink" width="650" height="420" viewBox="0 0 954 617"><defs><clipPath id="IsFSoBTOMcmv"><path fill="none" stroke="none" d=" M 0 0 L 954 0 L 954 617 L 0 617 L 0 0 Z"/></clipPath></defs><g transform="scale(1,1)" clip-path="url(#IsFSoBTOMcmv)"><g><rect fill="rgb(255,255,255)" stroke="none" x="0" y="0" width="954" height="617" fill-opacity="1"/><path fill="none" stroke="rgb(47,47,51)" paint-order="fill stroke markers" d=" M -4 0 L -4 617 M -4 0 L -4 617 M 50 0 L 50 617 M 103 0 L 103 617 M 157 0 L 157 617 M 210 0 L 210 617 M 264 0 L 264 617 M 317 0 L 317 617 M 370 0 L 370 617 M 424 0 L 424 617 M 477 0 L 477 617 M 531 0 L 531 617 M 584 0 L 584 617 M 638 0 L 638 617 M 691 0 L 691 617 M 745 0 L 745 617 M 798 0 L 798 617 M 852 0 L 852 617 M 905 0 L 905 617" stroke-opacity="1" stroke-linecap="round" stroke-linejoin="round" stroke-miterlimit="10" stroke-width="2"/><path fill="none" stroke="rgb(47,47,51)" paint-order="fill stroke markers" d="" stroke-opacity="0.23529411764705882" stroke-linecap="round" stroke-linejoin="round" stroke-miterlimit="10" stroke-width="2"/><path fill="none" stroke="rgb(47,47,51)" paint-order="fill stroke markers" d=" M 0 11 L 954 11 M 0 11 L 954 11 M 0 64 L 954 64 M 0 118 L 954 118 M 0 171 L 954 171 M 0 224 L 954 224 M 0 278 L 954 278 M 0 331 L 954 331 M 0 385 L 954 385 M 0 438 L 954 438 M 0 492 L 954 492 M 0 545 L 954 545 M 0 599 L 954 599" stroke-opacity="1" stroke-linecap="round" stroke-linejoin="round" stroke-miterlimit="10" stroke-width="2"/><path fill="none" stroke="rgb(47,47,51)" paint-order="fill stroke markers" d="" stroke-opacity="0.23529411764705882" stroke-linecap="round" stroke-linejoin="round" stroke-miterlimit="10" stroke-width="2"/><path fill="rgb(180,0,0)" stroke="none" paint-order="stroke fill markers" fill-rule="evenodd" d=" M 156.66625619128058 224.40917779627023 L 156.66625619128058 64.05235730257823 L 584.2844441744556 64.05235730257823 Z" fill-opacity="0.4980392156862745"/><path fill="rgb(21,101,192)" stroke="none" paint-order="stroke fill markers" fill-rule="evenodd" d=" M 423.927623680765 224.40917779627023 L 851.5458116639401 224.40917779627023 L 851.5458116639401 64.05235730257823 Z" fill-opacity="0.4980392156862745"/><path fill="rgb(0,103,88)" stroke="none" paint-order="stroke fill markers" fill-rule="evenodd" d=" M 156.66625619128058 277.86145129416764 L 317.0230766849712 277.86145129416764 L 423.927623680765 545.1228187836545 L 156.66625619128058 545.1228187836545 Z" fill-opacity="0.4980392156862745"/><path fill="rgb(180,130,0)" stroke="none" paint-order="stroke fill markers" fill-rule="evenodd" d=" M 530.8321706765588 277.86145129416764 L 798.0935381660432 277.86145129416764 L 798.0935381660432 545.1228187836545 L 637.7367176723525 545.1228187836545 Z" fill-opacity="0.4980392156862745"/><path fill="none" stroke="rgb(28,28,31)" paint-order="fill stroke markers" d=" M 156.66625619128058 224.40917779627023 L 156.66625619128058 64.05235730257823" stroke-opacity="0.8" stroke-linecap="round" stroke-linejoin="round" stroke-miterlimit="10" stroke-width="6.5"/><path fill="none" stroke="rgb(28,28,31)" paint-order="fill stroke markers" d=" M 156.66625619128058 64.05235730257823 L 584.2844441744556 64.05235730257823" stroke-opacity="0.8" stroke-linecap="round" stroke-linejoin="round" stroke-miterlimit="10" stroke-width="6.5"/><path fill="none" stroke="rgb(28,28,31)" paint-order="fill stroke markers" d=" M 584.2844441744556 64.05235730257823 L 156.66625619128058 224.40917779627023" stroke-opacity="0.8" stroke-linecap="round" stroke-linejoin="round" stroke-miterlimit="10" stroke-width="6.5"/><path fill="none" stroke="rgb(28,28,31)" paint-order="fill stroke markers" d=" M 423.927623680765 224.40917779627023 L 851.5458116639401 224.40917779627023" stroke-opacity="0.8" stroke-linecap="round" stroke-linejoin="round" stroke-miterlimit="10" stroke-width="6.5"/><path fill="none" stroke="rgb(28,28,31)" paint-order="fill stroke markers" d=" M 851.5458116639401 224.40917779627023 L 851.5458116639401 64.05235730257823" stroke-opacity="0.8" stroke-linecap="round" stroke-linejoin="round" stroke-miterlimit="10" stroke-width="6.5"/><path fill="none" stroke="rgb(28,28,31)" paint-order="fill stroke markers" d=" M 851.5458116639401 64.05235730257823 L 423.927623680765 224.40917779627023" stroke-opacity="0.6980392156862745" stroke-linecap="round" stroke-linejoin="round" stroke-miterlimit="10" stroke-width="6.5"/><path fill="none" stroke="rgb(28,28,31)" paint-order="fill stroke markers" d=" M 156.66625619128058 277.86145129416764 L 317.0230766849712 277.86145129416764" stroke-opacity="0.6980392156862745" stroke-linecap="round" stroke-linejoin="round" stroke-miterlimit="10" stroke-width="6.5"/><path fill="none" stroke="rgb(28,28,31)" paint-order="fill stroke markers" d=" M 317.0230766849712 277.86145129416764 L 423.927623680765 545.1228187836545" stroke-opacity="0.6980392156862745" stroke-linecap="round" stroke-linejoin="round" stroke-miterlimit="10" stroke-width="6.5"/><path fill="none" stroke="rgb(28,28,31)" paint-order="fill stroke markers" d=" M 423.927623680765 545.1228187836545 L 156.66625619128058 545.1228187836545" stroke-opacity="0.6980392156862745" stroke-linecap="round" stroke-linejoin="round" stroke-miterlimit="10" stroke-width="6.5"/><path fill="none" stroke="rgb(28,28,31)" paint-order="fill stroke markers" d=" M 156.66625619128058 545.1228187836545 L 156.66625619128058 277.86145129416764" stroke-opacity="0.6980392156862745" stroke-linecap="round" stroke-linejoin="round" stroke-miterlimit="10" stroke-width="6.5"/><path fill="none" stroke="rgb(28,28,31)" paint-order="fill stroke markers" d=" M 530.8321706765588 277.86145129416764 L 798.0935381660432 277.86145129416764" stroke-opacity="0.6980392156862745" stroke-linecap="round" stroke-linejoin="round" stroke-miterlimit="10" stroke-width="6.5"/><path fill="none" stroke="rgb(28,28,31)" paint-order="fill stroke markers" d=" M 798.0935381660432 277.86145129416764 L 798.0935381660432 545.1228187836545" stroke-opacity="0.6980392156862745" stroke-linecap="round" stroke-linejoin="round" stroke-miterlimit="10" stroke-width="6.5"/><path fill="none" stroke="rgb(28,28,31)" paint-order="fill stroke markers" d=" M 798.0935381660432 545.1228187836545 L 637.7367176723525 545.1228187836545" stroke-opacity="0.6980392156862745" stroke-linecap="round" stroke-linejoin="round" stroke-miterlimit="10" stroke-width="6.5"/><path fill="none" stroke="rgb(28,28,31)" paint-order="fill stroke markers" d=" M 637.7367176723525 545.1228187836545 L 530.8321706765588 277.86145129416764" stroke-opacity="0.6980392156862745" stroke-linecap="round" stroke-linejoin="round" stroke-miterlimit="10" stroke-width="6.5"/></g></g></svg>