<svg xmlns="http://www.w3.org/2000/svg" viewBox="0 0 1200 720" width="100%" height="100%">
    <defs>
        <style>
            @import url('https://fonts.googleapis.com/css2?family=Prompt:wght@400;600;700&amp;display=swap');
            
            .title { font-family: 'Prompt', sans-serif; font-weight: 700; fill: #ffffff; }
            .subtitle { font-family: 'Prompt', sans-serif; fill: #cbd5e1; }
            .card-title { font-family: 'Prompt', sans-serif; font-weight: 700; fill: #ffffff; }
            .label { font-family: 'Prompt', sans-serif; font-size: 14px; fill: #334155; font-weight: 600; }
            .desc { font-family: 'Prompt', sans-serif; font-size: 15px; fill: #1e293b; font-weight: 600; }
        </style>
        <linearGradient id="bgGradient" x1="0%" y1="0%" x2="100%" y2="100%">
            <stop offset="0%" stop-color="#f8fafc" />
            <stop offset="100%" stop-color="#e2e8f0" />
        </linearGradient>
        <filter id="shadow" x="-5%" y="-5%" width="110%" height="110%">
            <feDropShadow dx="2" dy="4" stdDeviation="4" flood-color="#0f172a" flood-opacity="0.12"/>
        </filter>
    </defs>

    <!-- Background -->
    <rect width="1200" height="720" fill="url(#bgGradient)" rx="16"/>

    <!-- Header -->
    <g transform="translate(50, 30)">
        <rect width="1100" height="75" rx="12" fill="#1e293b" filter="url(#shadow)"/>
        <text class="title" x="550" y="38" font-size="26" text-anchor="middle">à¸„à¸§à¸²à¸¡à¹€à¸—à¹ˆà¸²à¸à¸±à¸™à¸—à¸¸à¸à¸›à¸£à¸°à¸à¸²à¸£à¸‚à¸­à¸‡à¸£à¸¹à¸›à¸ªà¸²à¸¡à¹€à¸«à¸¥à¸µà¹ˆà¸¢à¸¡</text>
        <text class="subtitle" x="550" y="62" font-size="16" text-anchor="middle">5 à¹€à¸‡à¸·à¹ˆà¸­à¸™à¹„à¸‚à¸«à¸¥à¸±à¸à¹ƒà¸™à¸à¸²à¸£à¸•à¸£à¸§à¸ˆà¸ªà¸­à¸šà¸„à¸§à¸²à¸¡à¹€à¸—à¹ˆà¸²à¸à¸±à¸™à¸—à¸¸à¸à¸›à¸£à¸°à¸à¸²à¸£</text>
    </g>

    <!-- CARD 1: SSS -->
    <g transform="translate(50, 130)">
        <rect width="345" height="260" rx="12" fill="#ffffff" stroke="#ef4444" stroke-width="2" filter="url(#shadow)"/>
        <path d="M 0 12 A 12 12 0 0 1 12 0 L 333 0 A 12 12 0 0 1 345 12 L 345 48 L 0 48 Z" fill="#ef4444"/>
        <circle cx="24" cy="24" r="14" fill="#ffffff"/>
        <text class="label" x="24" y="29" font-size="14" font-weight="bold" fill="#ef4444" text-anchor="middle">1</text>
        <text class="card-title" x="52" y="30" font-size="16">SSS (à¸”à¹‰à¸²à¸™-à¸”à¹‰à¸²à¸™-à¸”à¹‰à¸²à¸™)</text>
        
        <g transform="translate(32, 70)">
            <polygon points="50,15 10,85 90,85" fill="#fef2f2" stroke="#dc2626" stroke-width="2.5"/>
            <line x1="26" y1="47" x2="34" y2="53" stroke="#ef4444" stroke-width="2.5"/>
            <line x1="66" y1="53" x2="74" y2="47" stroke="#ef4444" stroke-width="2.5"/>
            <line x1="45" y1="88" x2="55" y2="88" stroke="#ef4444" stroke-width="2.5"/>
            <text class="label" x="50" y="8" text-anchor="middle">A</text>
            <text class="label" x="0" y="98" text-anchor="middle">B</text>
            <text class="label" x="100" y="98" text-anchor="middle">C</text>
        </g>
        <text x="172.5" y="125" font-size="24" font-weight="bold" fill="#dc2626" text-anchor="middle">â‰…</text>
        <g transform="translate(192, 70)">
            <polygon points="50,15 10,85 90,85" fill="#fef2f2" stroke="#dc2626" stroke-width="2.5"/>
            <line x1="26" y1="47" x2="34" y2="53" stroke="#ef4444" stroke-width="2.5"/>
            <line x1="66" y1="53" x2="74" y2="47" stroke="#ef4444" stroke-width="2.5"/>
            <line x1="45" y1="88" x2="55" y2="88" stroke="#ef4444" stroke-width="2.5"/>
            <text class="label" x="50" y="8" text-anchor="middle">D</text>
            <text class="label" x="0" y="98" text-anchor="middle">E</text>
            <text class="label" x="100" y="98" text-anchor="middle">F</text>
        </g>
        <text class="desc" x="172.5" y="225" text-anchor="middle">à¸¡à¸µà¸„à¸§à¸²à¸¡à¸¢à¸²à¸§à¸‚à¸­à¸‡à¸”à¹‰à¸²à¸™à¹€à¸—à¹ˆà¸²à¸à¸±à¸™à¸—à¸±à¹‰à¸‡ 3 à¸„à¸¹à¹ˆ</text>
    </g>

    <!-- CARD 2: SAS -->
    <g transform="translate(427, 130)">
        <rect width="345" height="260" rx="12" fill="#ffffff" stroke="#10b981" stroke-width="2" filter="url(#shadow)"/>
        <path d="M 0 12 A 12 12 0 0 1 12 0 L 333 0 A 12 12 0 0 1 345 12 L 345 48 L 0 48 Z" fill="#10b981"/>
        <circle cx="24" cy="24" r="14" fill="#ffffff"/>
        <text class="label" x="24" y="29" font-size="14" font-weight="bold" fill="#10b981" text-anchor="middle">2</text>
        <text class="card-title" x="52" y="30" font-size="16">SAS (à¸”à¹‰à¸²à¸™-à¸¡à¸¸à¸¡-à¸”à¹‰à¸²à¸™)</text>
        
        <g transform="translate(32, 70)">
            <polygon points="50,15 10,85 90,85" fill="#ecfdf5" stroke="#059669" stroke-width="2.5"/>
            <line x1="26" y1="47" x2="34" y2="53" stroke="#ef4444" stroke-width="2.5"/>
            <path d="M 43 25 Q 50 32 57 25" fill="none" stroke="#dc2626" stroke-width="2"/>
            <line x1="66" y1="53" x2="74" y2="47" stroke="#ef4444" stroke-width="2.5"/>
            <text class="label" x="50" y="8" text-anchor="middle">A</text>
            <text class="label" x="0" y="98" text-anchor="middle">B</text>
            <text class="label" x="100" y="98" text-anchor="middle">C</text>
        </g>
        <text x="172.5" y="125" font-size="24" font-weight="bold" fill="#059669" text-anchor="middle">â‰…</text>
        <g transform="translate(192, 70)">
            <polygon points="50,15 10,85 90,85" fill="#ecfdf5" stroke="#059669" stroke-width="2.5"/>
            <line x1="26" y1="47" x2="34" y2="53" stroke="#ef4444" stroke-width="2.5"/>
            <path d="M 43 25 Q 50 32 57 25" fill="none" stroke="#dc2626" stroke-width="2"/>
            <line x1="66" y1="53" x2="74" y2="47" stroke="#ef4444" stroke-width="2.5"/>
            <text class="label" x="50" y="8" text-anchor="middle">D</text>
            <text class="label" x="0" y="98" text-anchor="middle">E</text>
            <text class="label" x="100" y="98" text-anchor="middle">F</text>
        </g>
        <text class="desc" x="172.5" y="225" text-anchor="middle">à¸”à¹‰à¸²à¸™ 2 à¸”à¹‰à¸²à¸™ à¹à¸¥à¸°à¸¡à¸¸à¸¡à¸£à¸°à¸«à¸§à¹ˆà¸²à¸‡à¸”à¹‰à¸²à¸™à¹€à¸—à¹ˆà¸²à¸à¸±à¸™</text>
    </g>

    <!-- CARD 3: ASA -->
    <g transform="translate(805, 130)">
        <rect width="345" height="260" rx="12" fill="#ffffff" stroke="#ef4444" stroke-width="2" filter="url(#shadow)"/>
        <path d="M 0 12 A 12 12 0 0 1 12 0 L 333 0 A 12 12 0 0 1 345 12 L 345 48 L 0 48 Z" fill="#ef4444"/>
        <circle cx="24" cy="24" r="14" fill="#ffffff"/>
        <text class="label" x="24" y="29" font-size="14" font-weight="bold" fill="#ef4444" text-anchor="middle">3</text>
        <text class="card-title" x="52" y="30" font-size="16">ASA (à¸¡à¸¸à¸¡-à¸”à¹‰à¸²à¸™-à¸¡à¸¸à¸¡)</text>
        
        <g transform="translate(32, 70)">
            <polygon points="50,15 10,85 90,85" fill="#fef2f2" stroke="#dc2626" stroke-width="2.5"/>
            <path d="M 18 70 Q 22 83 35 83" fill="none" stroke="#dc2626" stroke-width="2"/>
            <path d="M 82 70 Q 78 83 65 83" fill="none" stroke="#dc2626" stroke-width="2"/>
            <line x1="45" y1="88" x2="55" y2="88" stroke="#ef4444" stroke-width="2.5"/>
            <text class="label" x="50" y="8" text-anchor="middle">A</text>
            <text class="label" x="0" y="98" text-anchor="middle">B</text>
            <text class="label" x="100" y="98" text-anchor="middle">C</text>
        </g>
        <text x="172.5" y="125" font-size="24" font-weight="bold" fill="#dc2626" text-anchor="middle">â‰…</text>
        <g transform="translate(192, 70)">
            <polygon points="50,15 10,85 90,85" fill="#fef2f2" stroke="#dc2626" stroke-width="2.5"/>
            <path d="M 18 70 Q 22 83 35 83" fill="none" stroke="#dc2626" stroke-width="2"/>
            <path d="M 82 70 Q 78 83 65 83" fill="none" stroke="#dc2626" stroke-width="2"/>
            <line x1="45" y1="88" x2="55" y2="88" stroke="#ef4444" stroke-width="2.5"/>
            <text class="label" x="50" y="8" text-anchor="middle">D</text>
            <text class="label" x="0" y="98" text-anchor="middle">E</text>
            <text class="label" x="100" y="98" text-anchor="middle">F</text>
        </g>
        <text class="desc" x="172.5" y="225" text-anchor="middle">à¸¡à¸¸à¸¡ 2 à¸¡à¸¸à¸¡ à¹à¸¥à¸°à¸”à¹‰à¸²à¸™à¹€à¸‚à¹‰à¸²à¸£à¸°à¸«à¸§à¹ˆà¸²à¸‡à¸¡à¸¸à¸¡à¹€à¸—à¹ˆà¸²à¸à¸±à¸™</text>
    </g>

    <!-- CARD 4: AAS -->
    <g transform="translate(238, 415)">
        <rect width="345" height="260" rx="12" fill="#ffffff" stroke="#f59e0b" stroke-width="2" filter="url(#shadow)"/>
        <path d="M 0 12 A 12 12 0 0 1 12 0 L 333 0 A 12 12 0 0 1 345 12 L 345 48 L 0 48 Z" fill="#f59e0b"/>
        <circle cx="24" cy="24" r="14" fill="#ffffff"/>
        <text class="label" x="24" y="29" font-size="14" font-weight="bold" fill="#f59e0b" text-anchor="middle">4</text>
        <text class="card-title" x="52" y="30" font-size="16">AAS (à¸¡à¸¸à¸¡-à¸¡à¸¸à¸¡-à¸”à¹‰à¸²à¸™)</text>
        
        <g transform="translate(32, 70)">
            <polygon points="50,15 10,85 90,85" fill="#fffbeb" stroke="#d97706" stroke-width="2.5"/>
            <path d="M 43 25 Q 50 32 57 25" fill="none" stroke="#dc2626" stroke-width="2"/>
            <path d="M 18 70 Q 22 83 35 83" fill="none" stroke="#dc2626" stroke-width="2"/>
            <line x1="66" y1="53" x2="74" y2="47" stroke="#ef4444" stroke-width="2.5"/>
            <text class="label" x="50" y="8" text-anchor="middle">A</text>
            <text class="label" x="0" y="98" text-anchor="middle">B</text>
            <text class="label" x="100" y="98" text-anchor="middle">C</text>
        </g>
        <text x="172.5" y="125" font-size="24" font-weight="bold" fill="#d97706" text-anchor="middle">â‰…</text>
        <g transform="translate(192, 70)">
            <polygon points="50,15 10,85 90,85" fill="#fffbeb" stroke="#d97706" stroke-width="2.5"/>
            <path d="M 43 25 Q 50 32 57 25" fill="none" stroke="#dc2626" stroke-width="2"/>
            <path d="M 18 70 Q 22 83 35 83" fill="none" stroke="#dc2626" stroke-width="2"/>
            <line x1="66" y1="53" x2="74" y2="47" stroke="#ef4444" stroke-width="2.5"/>
            <text class="label" x="50" y="8" text-anchor="middle">D</text>
            <text class="label" x="0" y="98" text-anchor="middle">E</text>
            <text class="label" x="100" y="98" text-anchor="middle">F</text>
        </g>
        <text class="desc" x="172.5" y="225" text-anchor="middle">à¸¡à¸¸à¸¡ 2 à¸¡à¸¸à¸¡ à¹à¸¥à¸°à¸”à¹‰à¸²à¸™à¸—à¸µà¹ˆà¹„à¸¡à¹ˆà¸„à¸±à¹ˆà¸™à¸£à¸°à¸«à¸§à¹ˆà¸²à¸‡à¸¡à¸¸à¸¡à¹€à¸—à¹ˆà¸²à¸à¸±à¸™</text>
    </g>

    <!-- CARD 5: HL -->
    <g transform="translate(616, 415)">
        <rect width="345" height="260" rx="12" fill="#ffffff" stroke="#8b5cf6" stroke-width="2" filter="url(#shadow)"/>
        <path d="M 0 12 A 12 12 0 0 1 12 0 L 333 0 A 12 12 0 0 1 345 12 L 345 48 L 0 48 Z" fill="#8b5cf6"/>
        <circle cx="24" cy="24" r="14" fill="#ffffff"/>
        <text class="label" x="24" y="29" font-size="14" font-weight="bold" fill="#8b5cf6" text-anchor="middle">5</text>
        <text class="card-title" x="52" y="30" font-size="16">HL (à¸‰à¸²à¸-à¸”à¹‰à¸²à¸™-à¸”à¹‰à¸²à¸™)</text>
        
        <g transform="translate(32, 70)">
            <polygon points="15,15 15,85 85,85" fill="#f5f3ff" stroke="#7c3aed" stroke-width="2.5"/>
            <polyline points="15,73 27,73 27,85" fill="none" stroke="#dc2626" stroke-width="2"/>
            <line x1="47" y1="47" x2="53" y2="53" stroke="#ef4444" stroke-width="2.5"/>
            <line x1="45" y1="88" x2="55" y2="88" stroke="#ef4444" stroke-width="2.5"/>
            <text class="label" x="12" y="8" text-anchor="middle">A</text>
            <text class="label" x="5" y="98" text-anchor="middle">B</text>
            <text class="label" x="92" y="98" text-anchor="middle">C</text>
        </g>
        <text x="172.5" y="125" font-size="24" font-weight="bold" fill="#8b5cf6" text-anchor="middle">â‰…</text>
        <g transform="translate(192, 70)">
            <polygon points="15,15 15,85 85,85" fill="#f5f3ff" stroke="#7c3aed" stroke-width="2.5"/>
            <polyline points="15,73 27,73 27,85" fill="none" stroke="#dc2626" stroke-width="2"/>
            <line x1="47" y1="47" x2="53" y2="53" stroke="#ef4444" stroke-width="2.5"/>
            <line x1="45" y1="88" x2="55" y2="88" stroke="#ef4444" stroke-width="2.5"/>
            <text class="label" x="12" y="8" text-anchor="middle">D</text>
            <text class="label" x="5" y="98" text-anchor="middle">E</text>
            <text class="label" x="92" y="98" text-anchor="middle">F</text>
        </g>
        <text class="desc" x="172.5" y="225" text-anchor="middle">à¸ªà¸²à¸¡à¹€à¸«à¸¥à¸µà¹ˆà¸¢à¸¡à¸¡à¸¸à¸¡à¸‰à¸²à¸: à¸”à¹‰à¸²à¸™à¸•à¸£à¸‡à¸‚à¹‰à¸²à¸¡à¹à¸¥à¸°à¸”à¹‰à¸²à¸™à¸›à¸£à¸°à¸à¸­à¸šà¹€à¸—à¹ˆà¸²à¸à¸±à¸™</text>
    </g>

</svg>
